<svg xmlns="http://www.w3.org/2000/svg" width="1200" height="1200" viewBox="0 0 1200 1200" role="img" aria-labelledby="title desc">
  <title id="title">DRAWZY premium random physical item</title>
  <desc id="desc">A premium dark accessory set with a card holder, pouch, keyring, and leather care kit.</desc>
  <defs>
    <radialGradient id="bgGlow" cx="50%" cy="42%" r="62%">
      <stop offset="0" stop-color="#2a1a12"/>
      <stop offset="0.45" stop-color="#111"/>
      <stop offset="1" stop-color="#050505"/>
    </radialGradient>
    <linearGradient id="leather" x1="0" x2="1" y1="0" y2="1">
      <stop offset="0" stop-color="#272727"/>
      <stop offset="0.48" stop-color="#111"/>
      <stop offset="1" stop-color="#030303"/>
    </linearGradient>
    <linearGradient id="orangeEdge" x1="0" x2="1">
      <stop offset="0" stop-color="#f46a1f" stop-opacity="0.25"/>
      <stop offset="0.5" stop-color="#c8a96b" stop-opacity="0.55"/>
      <stop offset="1" stop-color="#f46a1f" stop-opacity="0.22"/>
    </linearGradient>
    <filter id="softShadow" x="-30%" y="-30%" width="160%" height="160%">
      <feDropShadow dx="0" dy="34" stdDeviation="34" flood-color="#000" flood-opacity="0.62"/>
      <feDropShadow dx="0" dy="0" stdDeviation="16" flood-color="#f46a1f" flood-opacity="0.18"/>
    </filter>
  </defs>
  <rect width="1200" height="1200" fill="url(#bgGlow)"/>
  <circle cx="608" cy="604" r="420" fill="#f46a1f" opacity="0.07"/>
  <circle cx="606" cy="580" r="260" fill="#c8a96b" opacity="0.08"/>
  <g filter="url(#softShadow)">
    <rect x="305" y="390" width="470" height="318" rx="42" fill="url(#leather)" stroke="url(#orangeEdge)" stroke-width="4"/>
    <rect x="347" y="443" width="385" height="72" rx="22" fill="#0a0a0a" stroke="#ffffff" stroke-opacity="0.08"/>
    <rect x="347" y="550" width="236" height="42" rx="16" fill="#2e2018" opacity="0.82"/>
    <rect x="347" y="614" width="326" height="34" rx="15" fill="#1d1d1d" opacity="0.95"/>
    <path d="M744 448c42 28 64 74 59 126-5 58-43 101-93 116l-38-101 72-141Z" fill="#0b0b0b" stroke="#c8a96b" stroke-opacity="0.42" stroke-width="3"/>
    <rect x="530" y="310" width="282" height="212" rx="38" fill="#171717" stroke="#ffffff" stroke-opacity="0.11" stroke-width="3"/>
    <path d="M598 402c42-40 102-40 146 0" fill="none" stroke="#c8a96b" stroke-width="14" stroke-linecap="round" opacity="0.9"/>
    <rect x="584" y="404" width="174" height="88" rx="24" fill="#060606" stroke="#f46a1f" stroke-opacity="0.36" stroke-width="3"/>
    <circle cx="801" cy="718" r="60" fill="#101010" stroke="#c8a96b" stroke-width="4"/>
    <circle cx="801" cy="718" r="31" fill="none" stroke="#f46a1f" stroke-opacity="0.52" stroke-width="6"/>
    <rect x="414" y="736" width="304" height="118" rx="34" fill="#131313" stroke="#ffffff" stroke-opacity="0.1" stroke-width="3"/>
    <rect x="449" y="770" width="88" height="50" rx="16" fill="#282828"/>
    <rect x="570" y="770" width="104" height="50" rx="16" fill="#24160f"/>
  </g>
  <rect x="90" y="88" width="1020" height="1020" rx="72" fill="none" stroke="#ffffff" stroke-opacity="0.04"/>
</svg>
